# xmcd CD database file
#
# Track frame offsets:
#	150
#	19867
#	45067
#	65179
#	86402
#	109042
#	134139
#	152301
#	174926
#	197551
#	215939
#	236514
#	257464
#	277189
#	299836
#	320583
#	340011
#	354363
#	369632
#	391912
#
# Disc length: 5408 seconds
#
# Revision: 0
# Processed by: cddbd v1.5.2PL0 Copyright (c) Steve Scherf et al.
# Submitted via: CDex 1.70beta2
#
DISCID=33151e14
DTITLE=Kenny G - The Most Romantic Melodies of All Time CD2
DYEAR=2006
DGENRE=Jazz
TTITLE0=The Joy of Life
TTITLE1=Going Home
TTITLE2=My Heart Will Go On (Love Theme From Titanic)
TTITLE3=Jasmine Flower
TTITLE4=Even If My Heart Would Break (With Aaron Neville)
TTITLE5=The Look of Love
TTITLE6=Song Bird
TTITLE7=Forever in Love
TTITLE8=Everytime I Close My Eyes (With Babyface)
TTITLE9=Theme From Dying Young
TTITLE10=Silhouette
TTITLE11=Uncle Al
TTITLE12=By The Time This Night is Over (With Peabo Bryson)
TTITLE13=In The Rain
TTITLE14=Homeland
TTITLE15=The Girl From Ipanema (With Bebel Gilberto)
TTITLE16=Stranger on The Shore
TTITLE17=Spring Breeze
TTITLE18=Auld Lang Syne
TTITLE19=What a Wonderful World (With Louis Armstrong)
EXTD=YEAR: 2006
EXTT0=
EXTT1=
EXTT2=
EXTT3=
EXTT4=
EXTT5=
EXTT6=
EXTT7=
EXTT8=
EXTT9=
EXTT10=
EXTT11=
EXTT12=
EXTT13=
EXTT14=
EXTT15=
EXTT16=
EXTT17=
EXTT18=
EXTT19=
PLAYORDER=
